<svg xmlns="http://www.w3.org/2000/svg" width="530" height="530" viewBox="0 0 530 530" version="1.1">
	<path d="M 241 72.109 C 231.288 73.210, 212.406 77.564, 203.500 80.757 C 174.458 91.170, 150.272 106.630, 128 129.020 C 107.503 149.624, 92.049 175.193, 82.679 204 C 77.027 221.377, 75.198 230.911, 73.948 249.500 C 69.391 317.282, 101.691 382.942, 158.364 421.104 C 181.102 436.414, 205.067 446.200, 232 451.171 C 247.051 453.950, 286.579 453.322, 301.500 450.068 C 313.757 447.394, 324 444.146, 324 442.932 C 324 442.434, 321.927 437.853, 319.393 432.752 L 314.786 423.477 303.643 426.244 C 288.263 430.063, 275.153 431.337, 257.500 430.728 C 240.021 430.126, 225.693 427.563, 210.735 422.366 C 153.978 402.644, 111.543 354.468, 98.985 295.500 C 95.922 281.116, 95.182 254.401, 97.425 239.168 C 106.748 175.840, 150.919 122.790, 211.500 102.164 C 245.472 90.597, 284.415 90.568, 318.349 102.083 C 368.991 119.269, 408.589 158.849, 424.912 208.600 C 431.820 229.654, 433.474 240.395, 433.445 264 C 433.424 281.349, 433.081 286.060, 431.212 294.648 C 426.795 314.945, 417.497 336.891, 406.067 354 L 401.056 361.500 408.754 369.250 C 412.989 373.512, 416.777 377, 417.172 377 C 417.568 377, 420.783 372.612, 424.317 367.250 C 446.058 334.256, 456.027 302.293, 456.207 265 C 456.464 211.847, 438.070 166.018, 401.395 128.433 C 369.736 95.988, 330.916 76.894, 286.789 72.063 C 275.628 70.841, 251.982 70.865, 241 72.109 M 191.854 138.328 C 182.020 140.538, 173.788 147.304, 169.138 157 C 166.907 161.651, 166.507 163.812, 166.547 171 C 166.586 178.148, 167.027 180.398, 169.319 185.143 C 174.748 196.384, 186.770 204.197, 198.883 204.355 C 208.084 204.475, 214.803 201.947, 221.467 195.856 C 229.488 188.525, 232.470 181.800, 232.487 171 C 232.498 163.916, 232.067 161.576, 229.899 156.954 C 226.238 149.149, 221.805 144.517, 214.664 141.035 C 207.329 137.458, 199.735 136.557, 191.854 138.328 M 254.185 139.956 C 251.261 140.419, 248.662 141.005, 248.408 141.258 C 248.155 141.512, 249.633 146.282, 251.693 151.860 L 255.438 162 266.261 162 C 292.200 162, 316.388 171.854, 334.993 190 C 350.348 204.976, 359.455 221.676, 364.167 243.500 C 364.924 247.002, 365.415 255.328, 365.347 263.500 C 365.210 279.972, 362.664 291.585, 356.204 305.206 C 346.186 326.325, 328.926 343.546, 307.822 353.475 C 294.845 359.581, 284.155 362.125, 269 362.714 C 242.347 363.750, 221.626 356.866, 200.683 340.018 C 184.369 326.894, 173.080 309.042, 167.288 287.206 C 165.107 278.984, 164.705 275.282, 164.657 263 C 164.599 247.748, 166.244 238.065, 170.905 226.241 L 172.948 221.057 164.602 214.028 C 160.012 210.163, 155.981 207, 155.645 207 C 154.699 207, 150.518 215.797, 148.092 222.888 C 135.749 258.974, 140.959 298.816, 162.179 330.610 C 189.916 372.168, 239.962 393.177, 287.931 383.400 C 311.820 378.531, 332.971 367.648, 349.909 351.511 C 374.800 327.796, 388 296.778, 388 262 C 388 236.632, 381.376 214.775, 367.259 193.560 C 349.409 166.735, 321.700 148.389, 288.759 141.585 C 279.601 139.694, 261.290 138.831, 254.185 139.956 M 253.791 207.461 C 237.361 210.883, 222.285 222.510, 214.966 237.403 C 210.544 246.402, 209 253.008, 209 262.926 C 209 287.181, 225.899 309.253, 249.932 316.388 C 256.932 318.466, 271.351 318.480, 279.356 316.416 C 296.599 311.970, 311.269 298.491, 317.885 281.015 C 321.413 271.698, 321.556 254.558, 318.188 244.810 C 313.940 232.515, 303.813 220.032, 293 213.760 C 281.936 207.344, 266.365 204.842, 253.791 207.461 M 358.031 377.039 C 343.781 382.163, 335.131 395.613, 336.228 410.941 C 336.814 419.136, 339.555 425.477, 345.121 431.515 C 351.424 438.353, 357.742 441.248, 367.500 441.768 C 378.436 442.350, 385.498 439.716, 392.658 432.383 C 407.250 417.436, 405.258 392.530, 388.549 381.034 C 379.888 375.075, 367.868 373.502, 358.031 377.039" stroke="none" fill="black" fill-rule="evenodd"/>
</svg>